<svg xmlns="http://www.w3.org/2000/svg" xmlns:xlink="http://www.w3.org/1999/xlink" width="0" height="0" style="display:none;"><symbol viewBox="0 0 24 24" id="tree-fill"><path d="M18 7C18 7.2624 17.9832 7.52086 17.9505 7.77437C19.7712 8.80457 21 10.7588 21 13C21 16.3137 18.3137 19 15 19C14.2987 19 13.6256 18.8797 13 18.6586V22H11V18.4003C10.2499 18.7837 9.40022 19 8.5 19C5.46243 19 3 16.5376 3 13.5C3 12.0474 3.56312 10.7263 4.48297 9.74318C4.87725 10.8232 5.49744 11.7944 6.28576 12.5989L7.71424 11.1991C6.99071 10.4607 6.45705 9.53767 6.1906 8.50688C6.06607 8.02541 6 7.5204 6 7C6 3.68629 8.68629 1 12 1C15.3137 1 18 3.68629 18 7Z"></path></symbol><symbol viewBox="0 0 24 24" id="home-2-fill"><path d="M20 20C20 20.5523 19.5523 21 19 21H5C4.44772 21 4 20.5523 4 20V11L1 11L11.3273 1.6115C11.7087 1.26475 12.2913 1.26475 12.6727 1.6115L23 11L20 11V20Z"></path></symbol><symbol viewBox="0 0 24 24" id="heart-fill"><path d="M12.001 4.52853C14.35 2.42 17.98 2.49 20.2426 4.75736C22.5053 7.02472 22.583 10.637 20.4786 12.993L11.9999 21.485L3.52138 12.993C1.41705 10.637 1.49571 7.01901 3.75736 4.75736C6.02157 2.49315 9.64519 2.41687 12.001 4.52853Z"></path></symbol><symbol viewBox="0 0 24 24" id="team-fill"><path d="M12 10C14.2091 10 16 8.20914 16 6 16 3.79086 14.2091 2 12 2 9.79086 2 8 3.79086 8 6 8 8.20914 9.79086 10 12 10ZM5.5 13C6.88071 13 8 11.8807 8 10.5 8 9.11929 6.88071 8 5.5 8 4.11929 8 3 9.11929 3 10.5 3 11.8807 4.11929 13 5.5 13ZM21 10.5C21 11.8807 19.8807 13 18.5 13 17.1193 13 16 11.8807 16 10.5 16 9.11929 17.1193 8 18.5 8 19.8807 8 21 9.11929 21 10.5ZM12 11C14.7614 11 17 13.2386 17 16V22H7V16C7 13.2386 9.23858 11 12 11ZM5 15.9999C5 15.307 5.10067 14.6376 5.28818 14.0056L5.11864 14.0204C3.36503 14.2104 2 15.6958 2 17.4999V21.9999H5V15.9999ZM22 21.9999V17.4999C22 15.6378 20.5459 14.1153 18.7118 14.0056 18.8993 14.6376 19 15.307 19 15.9999V21.9999H22Z"></path></symbol><symbol viewBox="0 0 24 24" id="pie-chart-fill"><path d="M11 2.04938V13H21.9506C21.4489 18.0533 17.1853 22 12 22C6.47715 22 2 17.5229 2 12C2 6.81465 5.94668 2.5511 11 2.04938ZM13 2.04938C17.7244 2.51845 21.4816 6.27559 21.9506 11H13V2.04938Z"></path></symbol><symbol viewBox="0 0 24 24" id="bar-chart-2-fill"><path d="M2 13H8V21H2V13ZM9 3H15V21H9V3ZM16 8H22V21H16V8Z"></path></symbol><symbol viewBox="0 0 24 24" id="bus-2-fill"><path d="M17 20H7V21C7 21.5523 6.55228 22 6 22H4C3.44772 22 3 21.5523 3 21V12H2V8H3V5C3 3.89543 3.89543 3 5 3H19C20.1046 3 21 3.89543 21 5V8H22V12H21V21C21 21.5523 20.5523 22 20 22H18C17.4477 22 17 21.5523 17 21V20ZM5 5V12H19V5H5ZM7.5 18C8.32843 18 9 17.3284 9 16.5C9 15.6716 8.32843 15 7.5 15C6.67157 15 6 15.6716 6 16.5C6 17.3284 6.67157 18 7.5 18ZM16.5 18C17.3284 18 18 17.3284 18 16.5C18 15.6716 17.3284 15 16.5 15C15.6716 15 15 15.6716 15 16.5C15 17.3284 15.6716 18 16.5 18Z"></path></symbol></svg>